<?xml version="1.0" encoding="UTF-8"?>
<svg id="Layer_2" data-name="Layer 2" xmlns="http://www.w3.org/2000/svg" viewBox="0 0 845.49 596.84">
  <defs>
    <style>
      .cls-1, .cls-2 {
        fill: #0d1b18;
      }

      .cls-3 {
        letter-spacing: .39em;
      }

      .cls-4 {
        letter-spacing: .49em;
      }

      .cls-5 {
        letter-spacing: .49em;
      }

      .cls-6 {
        letter-spacing: .49em;
      }

      .cls-7 {
        letter-spacing: .5em;
      }

      .cls-8 {
        letter-spacing: .5em;
      }

      .cls-9 {
        letter-spacing: .5em;
      }

      .cls-10 {
        letter-spacing: .51em;
      }

      .cls-11 {
        letter-spacing: .49em;
      }

      .cls-12 {
        letter-spacing: .51em;
      }

      .cls-13 {
        letter-spacing: .5em;
      }

      .cls-14 {
        letter-spacing: .5em;
      }

      .cls-15 {
        letter-spacing: .5em;
      }

      .cls-16 {
        letter-spacing: .5em;
      }

      .cls-17 {
        letter-spacing: .5em;
      }

      .cls-18 {
        fill: #6be4d3;
      }

      .cls-2 {
        font-family: AcuminVariableConcept, 'Acumin Variable Concept';
        font-size: 15.15px;
        font-variation-settings: 'wght' 194, 'wdth' 100, 'slnt' 0;
      }
    </style>
  </defs>
  <g id="Layer_1-2" data-name="Layer 1">
    <rect class="cls-18" x="124.33" y="-124.33" width="596.84" height="845.49" transform="translate(721.16 -124.33) rotate(90)"/>
    <g>
      <text class="cls-2" transform="translate(207.96 393.75)"><tspan class="cls-3" x="0" y="0">T</tspan><tspan class="cls-8" x="13.98" y="0">u</tspan><tspan class="cls-5" x="29.7" y="0">r</tspan><tspan class="cls-7" x="42.01" y="0">n </tspan><tspan class="cls-12" x="69.4" y="0">C</tspan><tspan class="cls-8" x="87.21" y="0">o</tspan><tspan class="cls-6" x="102.79" y="0">n</tspan><tspan class="cls-8" x="118.51" y="0">ve</tspan><tspan class="cls-13" x="148.21" y="0">rs</tspan><tspan class="cls-17" x="175.11" y="0">a</tspan><tspan class="cls-8" x="190.3" y="0">tio</tspan><tspan class="cls-15" x="228.65" y="0">n</tspan><tspan class="cls-8" x="244.48" y="0">s </tspan><tspan class="cls-4" x="270.28" y="0">I</tspan><tspan class="cls-15" x="281.52" y="0">n</tspan><tspan class="cls-11" x="297.35" y="0">t</tspan><tspan class="cls-7" x="309.21" y="0">o A</tspan><tspan class="cls-10" x="353.58" y="0">c</tspan><tspan class="cls-14" x="368.67" y="0">tio</tspan><tspan class="cls-16" x="407.01" y="0">n</tspan><tspan class="cls-9" x="422.84" y="0">s</tspan></text>
      <g>
        <path class="cls-1" d="M415.56,273.83c-4.76-5.32-10.5-8.8-17.55-9.99-18.36-3.09-35.95,6.75-42.82,24.11-6.42,16.25-.57,34.65,13.93,44.51,13.74,9.35,35.13,10.55,46.31-3.5.32,4.35.85,9.04-1.45,13.2-1.22,2.21-3.7,4.85-5.94,6.11-9.29,5.24-25.41,4.67-29.23-5.8l-20.8-.02c4.11,18.6,20.07,25.49,37.81,25.45,11.33-.02,22.13-3.51,30.25-11.45,5.98-5.84,10.53-13.45,10.55-22.09l.13-69.45-21.04.03-.15,8.87ZM415.53,305.58c-1,6.64-6.81,11.68-11.81,13.91-6.98,3.12-14.3,2.24-20.34-1.2-5.42-3.08-8.6-8.37-9.44-13.94-.94-6.23,1.31-12.54,5.98-16.77,5.41-4.91,12.65-6.3,19.73-4.91,10.61,2.09,17.6,11.51,15.87,22.91Z"/>
        <path class="cls-1" d="M653.78,264.18c-6.36,1.49-11.39,5.3-14.88,10.77l-.3-10.02-21.33.03.03,71.02,21.37-.08.04-40.43c.96-5.16,3.3-9.37,8.06-11.43,9.08-2.6,18.4-1.73,27.26,2.9l.03-20.58c-6.5-3.05-13.42-3.79-20.28-2.18Z"/>
        <path class="cls-1" d="M256.79,231l-29.7.02-.08-31.9-31.12.09-.02,31.73-24.4.13-.04,27.61,54.81.08-30.42,23.47.28,24.14c.4,8.68,3.93,16.56,10.49,22.22,6.16,4.63,13.48,7.21,21.32,7.23l28.88.07v-28.93s-19.25-.1-19.25-.1c-5.56-.05-10.37-4.06-10.39-9.98l-.09-38.13,29.73-.08v-27.68Z"/>
        <path class="cls-1" d="M293.22,266.15c-3.96,2.28-6.85,4.99-9.43,8.82l-.17-10.03h-20.97s-.02,71.05-.02,71.05l21.08-.14v-39.84c.9-4.94,2.82-9.91,7.69-11.68,9.25-3.36,18.99-1.81,27.84,2.5v-20.45c-8.52-4.11-17.76-3.95-26.01-.23Z"/>
        <rect class="cls-1" x="324.68" y="264.9" width="21.6" height="71.17"/>
        <polygon class="cls-1" points="346.25 241.46 324.33 241.56 346.16 262.17 346.25 241.46"/>
        <path class="cls-1" d="M505.31,274.02c-4.89-5.8-10.94-9.31-18.42-10.32-11.78-1.59-23.02,1.69-31.9,9.62-13.18,11.76-16.73,31.07-7.87,46.63,8.25,14.5,24.92,21.71,41.26,18.9,6.82-1.17,12.15-4.56,16.87-10.02v7.07c-.02,6.07-4.11,11.22-9.8,13.49-9.56,3.8-23.13,2.88-27.09-7.01l-20.77.15c2.09,9.77,8.23,16.53,16.19,20.81,6.65,3.55,13.78,4.54,21.37,4.58,10.75.05,20.79-2.77,29.21-9.64,7.29-5.94,12.02-14.77,12.04-24.55l.13-68.75-21.02-.06-.19,9.11ZM504.41,308.4c-3.08,8-10.62,12.27-18.16,12.87-8.02.63-15.93-2.77-20.13-9.87-3.46-5.83-3.52-12.83-.24-19.04,2.63-4.98,8.19-8.92,14.67-9.84,7.7-1.09,15.65.94,20.66,7.18,4.02,5.01,5.62,12.43,3.21,18.69Z"/>
        <path class="cls-1" d="M575.89,263.43c-3.59-.33-7.11-.17-10.51.43l-.08,18.78c5.3-1.85,11.56-1.49,16.71,1.47,3.76,2.17,6.22,5.46,7,9.89h-34.58c1.38-5.44,5.39-9.27,10.3-11.15l-14.04-13.26c-10.28,6.6-17.41,17.8-17.99,30.93-.7,15.65,8.19,29.37,22.89,34.7,20.47,7.42,46.65.65,52.96-21.79l-21.55.03c-3.8,8.05-15.31,9.49-23.21,5.95-5.13-2.3-8.71-6.74-9.56-12.21l55.81-.03c2.91-23.02-11.75-41.68-34.14-43.74Z"/>
      </g>
    </g>
  </g>
</svg>